<svg width="328" height="265" viewBox="0 0 328 265" fill="none" xmlns="http://www.w3.org/2000/svg">
<path id="brain" d="M272.146 265C271.614 264.816 271.231 264.545 270.811 264.461C263.962 263.086 257.992 259.989 252.68 255.491C248.451 251.91 244.115 248.454 239.825 244.945C235.786 241.642 231.802 238.285 228.083 234.612C222.506 229.105 216.345 224.365 209.382 220.675C202.382 216.965 194.986 214.474 187.206 213.059C180.929 211.917 174.597 211.647 168.241 211.979C165.198 212.139 162.167 212.534 159.126 212.759C152.829 213.224 146.515 213.273 140.218 212.961C132.327 212.571 124.511 211.503 116.884 209.345C107.685 206.741 99.1506 202.831 91.8777 196.491C86.0262 191.39 81.5554 185.336 79.1087 177.906C77.5047 173.035 76.9587 168.029 77.1961 162.917C77.3292 160.052 77.741 157.231 78.3498 154.436C79.5418 148.963 85.5872 146.784 89.9386 149.798C92.3438 151.464 93.515 154.49 92.8471 157.491C92.2229 160.295 91.8426 163.119 91.9344 166C92.0924 170.957 93.5172 175.484 96.3534 179.584C101.198 186.589 107.952 190.993 115.815 193.866C121.853 196.072 128.118 197.231 134.51 197.88C140.521 198.49 146.536 198.556 152.552 198.295C157.145 198.095 161.723 197.529 166.316 197.32C170.313 197.139 174.329 197.068 178.324 197.238C185.719 197.554 192.979 198.795 200.086 200.917C209.736 203.798 218.633 208.173 226.78 214.079C231.129 217.232 235.16 220.751 238.962 224.542C242.595 228.163 246.575 231.392 250.561 234.614C254.543 237.834 258.468 241.125 262.466 244.326C265.782 246.982 269.551 248.751 273.712 249.653C274.257 249.771 274.838 249.788 275.398 249.762C277.406 249.668 278.548 248.519 278.515 246.52C278.478 244.244 277.868 242.076 277.028 239.972C275.801 236.9 274.027 234.13 272.271 231.346C268.913 226.022 265.447 220.76 262.263 215.333C257.967 208.012 254.523 200.297 252.719 191.955C252.186 189.491 251.94 186.961 251.628 184.453C251.478 183.247 251.413 182.022 251.424 180.808C251.497 173.149 253.467 166.005 257.164 159.288C259.31 155.39 262.131 151.996 264.773 148.46C268.016 144.119 270.984 139.61 272.92 134.507C274.107 131.38 274.884 128.17 275.187 124.822C275.788 118.196 274.38 111.95 271.751 105.938C269.166 100.024 265.426 94.8681 261.059 90.134C253.717 82.1753 245.153 75.7975 235.676 70.6311C226.889 65.841 217.591 62.2824 207.97 59.5385C200.682 57.46 193.282 55.8941 185.787 54.8238C181.655 54.2338 177.478 53.9657 173.322 53.5448C167.318 52.9366 161.292 52.9927 155.274 53.105C151.666 53.1724 148.062 53.5355 144.461 53.834C136.397 54.5025 128.44 55.882 120.55 57.6403C111.542 59.6479 102.733 62.3277 94.1713 65.7813C85.9032 69.1163 77.9593 73.0826 70.6258 78.1787C66.6408 80.9479 62.8818 84.0061 59.7596 87.7526C58.9882 88.6782 58.4384 89.7893 57.7985 90.8223C56.7405 92.5305 58.2063 94.6975 59.8685 95.1385C61.0857 95.4615 62.3107 95.5499 63.4979 95.2289C65.6693 94.6418 67.8743 94.0909 69.943 93.2315C73.5012 91.7532 76.9666 90.0518 80.4693 88.4405C91.7705 83.2415 103.347 78.8034 115.457 75.8431C122.31 74.1679 129.229 72.8437 136.257 72.1848C140.229 71.8125 144.212 71.4887 148.197 71.3519C153.46 71.1713 158.735 71.0417 163.997 71.1787C168.495 71.2958 172.986 71.7764 177.472 72.1748C183.098 72.6745 188.642 73.6979 194.125 75.0306C203.705 77.3591 212.798 80.8755 221.002 86.4172C227.217 90.6154 232.633 95.657 236.677 102.041C240.395 107.912 242.768 114.279 243.791 121.16C244.284 124.473 244.449 127.801 244.235 131.123C243.805 137.799 242.072 144.141 238.951 150.091C235.188 157.264 229.601 162.737 223.016 167.301C213.931 173.598 203.844 177.598 193.189 180.303C186.76 181.935 180.246 183.083 173.644 183.762C169.249 184.214 164.853 184.569 160.432 184.592C159.119 184.599 157.805 184.789 156.494 184.762C148.554 184.598 140.616 184.4 132.829 182.565C129.013 181.666 125.299 180.5 121.838 178.622C116.915 175.949 113.045 172.274 111.246 166.862C108.593 158.883 110.329 151.773 115.992 145.625C120.541 140.686 126.355 137.736 132.571 135.508C138.614 133.341 144.857 132.056 151.248 131.416C155.14 131.025 159.035 130.878 162.938 130.975C167.072 131.079 171.203 131.4 175.336 131.397C178.619 131.395 181.901 131.034 185.083 130.102C186.353 129.73 187.541 129.24 188.575 128.341C190.384 126.768 189.941 124.758 188.74 123.354C187.542 121.953 185.964 121.138 184.267 120.507C181.917 119.634 179.473 119.145 177 118.844C170.257 118.023 163.473 117.953 156.709 118.301C145.786 118.863 135.06 120.666 124.611 123.993C118.33 125.992 112.262 128.526 106.203 131.091C97.9352 134.59 89.7193 138.215 81.4072 141.606C74.3045 144.504 67.0023 146.818 59.4352 148.241C53.1174 149.429 46.7508 149.907 40.3464 149.472C34.2504 149.057 28.3587 147.673 22.8443 144.961C17.6089 142.386 13.2406 138.713 9.61327 134.175C4.55903 127.852 1.68373 120.603 0.602314 112.617C0.551952 112.245 0.545132 111.867 0.524742 111.252C0.381638 110.498 0.923253 109.742 0 109.499C0 106.954 0 104.408 0.0896005 101.674C0.279808 100.856 0.380415 100.226 0.497535 99.4718C1.04535 96.2587 1.39235 93.1237 2.14173 90.0877C4.60671 80.101 8.91556 70.9066 14.6185 62.3646C20.1257 54.1159 26.7032 46.8029 34.2506 40.3601C44.8731 31.2922 56.6924 24.1265 69.3762 18.3301C76.6964 14.9848 84.2159 12.1729 91.911 9.81611C98.4307 7.8193 105.026 6.1152 111.718 4.81636C116.464 3.89531 121.23 3.05616 126.011 2.34467C130.139 1.73041 134.295 1.28431 138.45 0.883277C141.672 0.572343 144.912 0.445702 148.273 0.254015C149.452 0.141803 150.551 0.606477 151.559 0C156.937 0 162.315 1.54156e-08 167.904 0.0884876C169.201 0.197025 170.287 0.217074 171.5 0.257922C173.967 0.440629 176.312 0.546924 178.646 0.776336C183.13 1.21712 187.615 1.65858 192.084 2.22557C198.704 3.06548 205.25 4.34004 211.744 5.86758C222.657 8.43418 233.315 11.7936 243.666 16.1074C253.588 20.2423 263.093 25.1655 272.082 31.0624C281.946 37.5336 291.058 44.9028 299.085 53.577C302.407 57.1673 305.531 60.9101 308.42 64.857C315.472 74.491 320.938 84.9209 324.388 96.3674C326.123 102.125 327.427 107.969 327.743 114.115C327.818 114.82 327.909 115.405 328 115.99C328 119.101 328 122.211 327.908 125.521C327.798 126.341 327.78 126.962 327.745 127.709C327.421 130.486 327.272 133.166 326.78 135.781C324.652 147.071 320.473 157.57 314.332 167.29C311.034 172.509 307.264 177.357 303.054 181.879C299.682 185.502 296.055 188.842 292.18 191.91C289.854 193.752 287.227 194.159 284.479 192.981C281.225 191.587 280.011 188.911 280.026 186.079C280.039 183.623 281.216 181.624 283.209 180.078C286.931 177.191 290.302 173.926 293.446 170.415C298.752 164.492 303.138 157.972 306.494 150.764C310.438 142.295 312.801 133.432 313.273 124.081C313.548 118.614 313.139 113.202 312.054 107.847C309.872 97.0777 305.528 87.1957 299.526 78.0261C294.852 70.8845 289.384 64.403 283.153 58.5491C279.102 54.7432 274.853 51.1908 270.379 47.8965C257.936 38.7347 244.32 31.7923 229.803 26.5745C217.961 22.3182 205.796 19.3266 193.355 17.4172C186.853 16.4193 180.318 15.7542 173.764 15.2784C170.343 15.0301 166.906 14.9366 163.476 14.8991C157.031 14.8286 150.584 14.8627 144.157 15.4491C139.25 15.8969 134.338 16.3108 129.444 16.8794C121.782 17.7699 114.219 19.2437 106.731 21.0876C97.538 23.3513 88.5532 26.2552 79.8271 29.9369C70.084 34.0478 60.8474 39.0743 52.1942 45.1586C46.9519 48.8446 41.9887 52.8829 37.4535 57.3946C34.8645 59.9702 32.462 62.774 30.2629 65.691C22.7727 75.626 17.4802 86.5828 15.4338 98.9445C14.5907 104.037 14.598 109.148 15.9004 114.174C17.7029 121.13 21.4564 126.769 27.609 130.647C31.9334 133.373 36.7867 134.45 41.8142 134.811C47.0086 135.183 52.1403 134.59 57.2335 133.6C63.9074 132.302 70.3432 130.199 76.6049 127.608C85.5975 123.887 94.5254 120.01 103.479 116.196C111.314 112.858 119.257 109.837 127.542 107.78C137.055 105.418 146.696 103.914 156.498 103.6C162.892 103.395 169.291 103.285 175.671 104.049C181.117 104.701 186.426 105.857 191.443 108.12C195.022 109.735 198.377 111.683 201.014 114.701C205.918 120.312 206.211 127.913 202.849 133.867C199.905 139.08 195.439 142.408 189.758 144.153C185.32 145.515 180.73 145.951 176.123 146.084C173.023 146.174 169.915 145.929 166.811 145.934C162.529 145.942 158.247 146.02 153.965 146.111C149.612 146.203 145.389 147.141 141.189 148.186C137.338 149.145 133.611 150.437 130.18 152.47C128.715 153.339 127.381 154.379 126.336 155.744C124.409 158.259 124.405 161.667 126.27 163.824C126.906 164.56 127.689 165.2 128.496 165.752C130.307 166.993 132.385 167.645 134.495 168.151C139.678 169.394 144.969 169.89 150.275 170.063C154.077 170.187 157.893 170.058 161.695 169.883C165.304 169.717 168.906 169.384 172.505 169.055C178.175 168.538 183.778 167.593 189.303 166.21C198.556 163.894 207.29 160.408 215.073 154.794C218.323 152.45 221.369 149.873 223.718 146.583C228.683 139.629 230.401 131.851 229.236 123.48C228.011 114.676 223.708 107.532 216.885 101.857C210.367 96.4363 202.84 92.9988 194.785 90.5959C189.28 88.9536 183.656 87.8844 177.964 87.1134C171.996 86.305 165.994 86.0034 159.986 85.8336C157.028 85.75 154.061 85.9191 151.099 86.0061C148.892 86.0708 146.685 86.1852 144.479 86.2811C140.109 86.4711 135.782 87.0417 131.465 87.7099C123.501 88.9426 115.711 90.8782 108.054 93.3754C100.531 95.8291 93.2419 98.8624 86.063 102.17C81.0233 104.491 76.0053 106.856 70.6649 108.448C65.4454 110.003 60.1709 111.058 54.6888 110.348C52.0883 110.012 49.6121 109.239 47.4983 107.657C42.012 103.551 40.2084 97.9416 41.1658 91.3575C41.7464 87.365 43.645 83.8983 46.0199 80.6888C49.1198 76.4993 52.9363 73.02 57.0045 69.8044C63.7498 64.4728 71.1039 60.1285 78.8317 56.3762C86.9763 52.4215 95.4071 49.2063 104.079 46.6443C115.865 43.1625 127.874 40.7469 140.103 39.4117C145.854 38.7838 151.617 38.4068 157.396 38.3183C163.182 38.2296 168.968 38.3214 174.735 38.8695C178.942 39.2692 183.164 39.5639 187.346 40.1471C195.452 41.2775 203.468 42.8951 211.356 45.1041C224.981 48.9195 237.952 54.244 249.923 61.843C259.272 67.7778 267.67 74.8258 274.8 83.3291C279.358 88.7664 283.15 94.6792 285.862 101.249C289.174 109.273 290.641 117.586 289.888 126.279C289.342 132.584 287.558 138.514 284.836 144.188C281.994 150.111 278.275 155.474 274.154 160.563C268.859 167.101 265.747 174.359 266.295 182.947C266.464 185.586 266.917 188.154 267.59 190.695C268.997 196.003 271.375 200.915 274.015 205.683C277.201 211.435 280.629 217.053 283.884 222.767C286.582 227.502 289.274 232.246 291.353 237.299C292.957 241.198 294.017 245.21 293.829 249.476C293.672 253.051 292.647 256.309 290.278 259.054C287.787 261.94 284.553 263.564 280.895 264.451C280.371 264.578 279.875 264.814 279.366 265C277.003 265 274.641 265 272.146 265Z" fill="#7265AD"/>
</svg>
