<svg
    version="1.1"
    id="Layer_1"
    xmlns="http://www.w3.org/2000/svg"
    xmlns:xlink="http://www.w3.org/1999/xlink"
    x="0px"
    y="0px"
    width="60.02px"
    height="48.6px"
    viewBox="0 0 2319 1877"
    enable-background="new 0 0 2319 1877"
    xml:space="preserve"
  >
    <path
      fill="transparent"
      opacity="1.000000"
      stroke="none"
      d="
  M1926.000000,1880.000000 
  	C1284.843750,1880.000000 643.687622,1880.000000 2.000000,1880.000000 
  	C2.000000,1517.277466 2.000000,1154.554565 2.594527,790.853882 
  	C3.966837,790.047058 4.744620,790.218079 5.593270,791.255127 
  	C5.855809,794.778931 5.904054,797.456299 6.260272,800.091919 
  	C13.909284,856.687317 34.246826,908.063110 69.996292,952.872253 
  	C95.652847,985.030640 126.551010,1011.058594 163.581573,1029.305542 
  	C202.586243,1048.525269 244.258743,1058.337402 287.377106,1061.275269 
  	C332.676086,1064.361572 377.708191,1060.969116 422.395599,1052.551636 
  	C475.918457,1042.469971 527.568176,1026.067993 577.806702,1005.533142 
  	C636.599670,981.501770 694.712463,955.809875 753.193665,931.011353 
  	C796.045349,912.840515 838.968628,894.878723 883.393188,880.709534 
  	C957.300293,857.136841 1033.171387,844.359558 1110.430054,840.376892 
  	C1158.274902,837.910461 1206.254883,838.407288 1253.953857,844.221252 
  	C1271.442383,846.352905 1288.731934,849.818420 1305.353882,856.008057 
  	C1317.357910,860.478088 1328.517334,866.259094 1336.990723,876.182861 
  	C1345.486938,886.133179 1348.621338,900.381409 1335.824097,911.525269 
  	C1328.510376,917.893982 1320.107788,921.366638 1311.123413,924.004150 
  	C1288.620117,930.610413 1265.405029,933.170044 1242.178345,933.184387 
  	C1212.949463,933.202454 1183.726929,930.927734 1154.487793,930.194336 
  	C1126.882202,929.501953 1099.331543,930.550049 1071.799683,933.314575 
  	C1026.597534,937.853333 982.438904,946.961670 939.699219,962.314514 
  	C895.731079,978.108643 854.606323,999.013367 822.430176,1034.013550 
  	C782.375732,1077.583618 770.095459,1127.968994 788.861938,1184.517700 
  	C801.588562,1222.866821 828.958374,1248.917480 863.779358,1267.854004 
  	C888.259705,1281.167114 914.533447,1289.430176 941.521973,1295.802246 
  	C996.599121,1308.805908 1052.749390,1310.211060 1108.910889,1311.372803 
  	C1118.181519,1311.564575 1127.475220,1310.215576 1136.761353,1310.166992 
  	C1168.033447,1310.003174 1199.125732,1307.483276 1230.214844,1304.281738 
  	C1276.913940,1299.472534 1322.984009,1291.338257 1368.461304,1279.770630 
  	C1443.822998,1260.601562 1515.173706,1232.255127 1579.431641,1187.628662 
  	C1626.009644,1155.280640 1665.522461,1116.496948 1692.138062,1065.666382 
  	C1714.219849,1023.494019 1726.476685,978.556091 1729.515015,931.239441 
  	C1731.026367,907.701965 1729.859863,884.117859 1726.376465,860.637939 
  	C1719.141357,811.868835 1702.357056,766.746826 1676.055786,725.143555 
  	C1647.454224,679.901306 1609.144165,644.172791 1565.184326,614.420837 
  	C1507.156616,575.147705 1442.839722,550.227966 1375.079468,533.726562 
  	C1336.295288,524.281616 1297.082764,517.028931 1257.292480,513.488220 
  	C1225.556396,510.664215 1193.791748,507.258362 1161.979248,506.428680 
  	C1124.758423,505.457916 1087.450684,506.376617 1050.221191,507.656494 
  	C1022.034058,508.625519 993.861145,510.920197 965.769592,513.558838 
  	C916.056152,518.228455 867.116272,527.612610 818.645264,539.484131 
  	C732.989258,560.463135 651.108154,591.915527 571.172791,628.759338 
  	C546.397705,640.178589 521.886902,652.236023 496.718536,662.712341 
  	C482.086700,668.802856 466.490479,672.706909 451.131134,676.867493 
  	C442.734497,679.142090 434.069611,678.516174 425.459778,676.227051 
  	C413.703156,673.101318 403.335419,657.744629 410.818756,645.639160 
  	C415.344666,638.317871 419.233246,630.444031 424.689575,623.884277 
  	C446.773834,597.333984 473.361816,575.661072 501.548492,556.036133 
  	C553.419250,519.921143 609.608093,491.813019 668.089783,468.178711 
  	C728.651306,443.703796 790.952881,424.712463 854.671021,410.484802 
  	C910.474976,398.024292 966.755920,388.248108 1023.799255,383.510254 
  	C1049.265625,381.395081 1074.762695,378.821777 1100.281128,378.344330 
  	C1142.845459,377.547974 1185.466064,377.150604 1227.937744,381.460785 
  	C1257.332764,384.443939 1286.880005,386.343445 1316.102173,390.524658 
  	C1369.115234,398.110016 1421.461060,409.206787 1473.008423,423.937012 
  	C1541.055542,443.382233 1606.823730,468.601654 1668.975342,502.548065 
  	C1736.009155,539.161194 1796.584229,584.359680 1848.515259,640.760925 
  	C1879.405762,674.310425 1905.854248,710.846680 1924.143311,752.761658 
  	C1942.733276,795.366272 1952.696411,839.630005 1948.447266,886.586609 
  	C1946.300171,910.315491 1940.804565,933.063477 1932.412231,955.221863 
  	C1918.715088,991.387207 1897.719604,1023.339539 1874.782471,1054.103149 
  	C1856.098267,1079.162720 1836.146362,1103.215088 1820.967773,1130.842651 
  	C1794.815430,1178.444336 1780.882324,1229.071289 1780.366211,1283.345825 
  	C1780.284302,1291.955566 1780.744263,1300.635498 1781.804932,1309.177368 
  	C1784.012207,1326.952026 1785.751221,1344.880127 1789.522339,1362.348145 
  	C1802.285400,1421.466187 1826.644775,1476.139282 1857.027588,1528.019043 
  	C1879.550171,1566.477539 1904.065918,1603.771606 1927.821655,1641.504028 
  	C1940.239990,1661.228516 1952.790527,1680.861450 1961.466431,1702.632690 
  	C1967.409058,1717.544678 1971.722412,1732.906982 1971.984253,1749.035522 
  	C1972.214233,1763.204956 1964.143311,1771.345459 1949.938599,1772.012817 
  	C1945.976318,1772.198975 1941.866333,1772.077759 1938.010376,1771.240112 
  	C1908.580444,1764.846436 1881.923462,1752.307739 1858.463745,1733.486816 
  	C1830.188721,1710.802734 1802.427734,1687.479004 1774.259277,1664.660522 
  	C1746.070190,1641.825195 1717.915161,1618.946777 1692.219971,1593.279175 
  	C1665.325928,1566.414062 1636.816040,1541.478882 1606.052124,1519.134277 
  	C1548.430176,1477.282349 1485.497925,1446.273560 1417.244141,1425.857422 
  	C1366.970703,1410.819580 1315.625122,1402.021973 1263.312622,1399.787964 
  	C1235.055420,1398.581299 1206.649658,1399.086304 1178.381348,1400.369507 
  	C1145.891479,1401.844482 1113.515625,1405.860352 1081.024902,1407.273438 
  	C1038.471680,1409.124023 995.931946,1408.659912 953.412048,1404.336182 
  	C908.199158,1399.738525 863.884827,1391.522339 821.179810,1375.887939 
  	C765.559448,1355.525269 717.794250,1324.318726 683.523865,1274.677490 
  	C663.463440,1245.619751 653.385376,1213.534668 652.267639,1178.405640 
  	C651.618164,1157.991333 654.308594,1137.978638 658.723083,1118.107544 
  	C663.447632,1096.840942 655.163574,1075.393188 638.150757,1063.587769 
  	C607.372559,1042.230347 564.612488,1057.666748 556.181335,1096.453979 
  	C551.875244,1116.263794 548.962402,1136.258545 548.021301,1156.558716 
  	C546.341919,1192.783569 550.203796,1228.266479 561.549072,1262.785400 
  	C578.855286,1315.441040 610.477905,1358.344604 651.866943,1394.491943 
  	C703.309326,1439.419800 763.670898,1467.130737 828.737427,1485.582153 
  	C882.687378,1500.880981 937.969482,1508.445801 993.788025,1511.211792 
  	C1038.328979,1513.419067 1082.986938,1513.075928 1127.527710,1509.775635 
  	C1149.036743,1508.181885 1170.470337,1505.382812 1191.997070,1504.254639 
  	C1236.953125,1501.898193 1281.742920,1503.810425 1326.142700,1511.904663 
  	C1381.166504,1521.935669 1433.480103,1539.583496 1482.993774,1565.877319 
  	C1532.241699,1592.030029 1575.824829,1625.617798 1615.270752,1664.649170 
  	C1641.577271,1690.679077 1669.754028,1714.469360 1698.319824,1737.876587 
  	C1728.666870,1762.743408 1759.333496,1787.234253 1789.247681,1812.611450 
  	C1826.822144,1844.487183 1869.050781,1866.435913 1917.493408,1876.180786 
  	C1920.464722,1876.778442 1923.170654,1878.696289 1926.000000,1880.000000 
  z"
    />
    <path
      fill="#7265AD"
      opacity="1.000000"
      stroke="none"
      d="
  M1926.937256,1880.000000 
  	C1923.170654,1878.696289 1920.464722,1876.778442 1917.493408,1876.180786 
  	C1869.050781,1866.435913 1826.822144,1844.487183 1789.247681,1812.611450 
  	C1759.333496,1787.234253 1728.666870,1762.743408 1698.319824,1737.876587 
  	C1669.754028,1714.469360 1641.577271,1690.679077 1615.270752,1664.649170 
  	C1575.824829,1625.617798 1532.241699,1592.030029 1482.993774,1565.877319 
  	C1433.480103,1539.583496 1381.166504,1521.935669 1326.142700,1511.904663 
  	C1281.742920,1503.810425 1236.953125,1501.898193 1191.997070,1504.254639 
  	C1170.470337,1505.382812 1149.036743,1508.181885 1127.527710,1509.775635 
  	C1082.986938,1513.075928 1038.328979,1513.419067 993.788025,1511.211792 
  	C937.969482,1508.445801 882.687378,1500.880981 828.737427,1485.582153 
  	C763.670898,1467.130737 703.309326,1439.419800 651.866943,1394.491943 
  	C610.477905,1358.344604 578.855286,1315.441040 561.549072,1262.785400 
  	C550.203796,1228.266479 546.341919,1192.783569 548.021301,1156.558716 
  	C548.962402,1136.258545 551.875244,1116.263794 556.181335,1096.453979 
  	C564.612488,1057.666748 607.372559,1042.230347 638.150757,1063.587769 
  	C655.163574,1075.393188 663.447632,1096.840942 658.723083,1118.107544 
  	C654.308594,1137.978638 651.618164,1157.991333 652.267639,1178.405640 
  	C653.385376,1213.534668 663.463440,1245.619751 683.523865,1274.677490 
  	C717.794250,1324.318726 765.559448,1355.525269 821.179810,1375.887939 
  	C863.884827,1391.522339 908.199158,1399.738525 953.412048,1404.336182 
  	C995.931946,1408.659912 1038.471680,1409.124023 1081.024902,1407.273438 
  	C1113.515625,1405.860352 1145.891479,1401.844482 1178.381348,1400.369507 
  	C1206.649658,1399.086304 1235.055420,1398.581299 1263.312622,1399.787964 
  	C1315.625122,1402.021973 1366.970703,1410.819580 1417.244141,1425.857422 
  	C1485.497925,1446.273560 1548.430176,1477.282349 1606.052124,1519.134277 
  	C1636.816040,1541.478882 1665.325928,1566.414062 1692.219971,1593.279175 
  	C1717.915161,1618.946777 1746.070190,1641.825195 1774.259277,1664.660522 
  	C1802.427734,1687.479004 1830.188721,1710.802734 1858.463745,1733.486816 
  	C1881.923462,1752.307739 1908.580444,1764.846436 1938.010376,1771.240112 
  	C1941.866333,1772.077759 1945.976318,1772.198975 1949.938599,1772.012817 
  	C1964.143311,1771.345459 1972.214233,1763.204956 1971.984253,1749.035522 
  	C1971.722412,1732.906982 1967.409058,1717.544678 1961.466431,1702.632690 
  	C1952.790527,1680.861450 1940.239990,1661.228516 1927.821655,1641.504028 
  	C1904.065918,1603.771606 1879.550171,1566.477539 1857.027588,1528.019043 
  	C1826.644775,1476.139282 1802.285400,1421.466187 1789.522339,1362.348145 
  	C1785.751221,1344.880127 1784.012207,1326.952026 1781.804932,1309.177368 
  	C1780.744263,1300.635498 1780.284302,1291.955566 1780.366211,1283.345825 
  	C1780.882324,1229.071289 1794.815430,1178.444336 1820.967773,1130.842651 
  	C1836.146362,1103.215088 1856.098267,1079.162720 1874.782471,1054.103149 
  	C1897.719604,1023.339539 1918.715088,991.387207 1932.412231,955.221863 
  	C1940.804565,933.063477 1946.300171,910.315491 1948.447266,886.586609 
  	C1952.696411,839.630005 1942.733276,795.366272 1924.143311,752.761658 
  	C1905.854248,710.846680 1879.405762,674.310425 1848.515259,640.760925 
  	C1796.584229,584.359680 1736.009155,539.161194 1668.975342,502.548065 
  	C1606.823730,468.601654 1541.055542,443.382233 1473.008423,423.937012 
  	C1421.461060,409.206787 1369.115234,398.110016 1316.102173,390.524658 
  	C1286.880005,386.343445 1257.332764,384.443939 1227.937744,381.460785 
  	C1185.466064,377.150604 1142.845459,377.547974 1100.281128,378.344330 
  	C1074.762695,378.821777 1049.265625,381.395081 1023.799255,383.510254 
  	C966.755920,388.248108 910.474976,398.024292 854.671021,410.484802 
  	C790.952881,424.712463 728.651306,443.703796 668.089783,468.178711 
  	C609.608093,491.813019 553.419250,519.921143 501.548492,556.036133 
  	C473.361816,575.661072 446.773834,597.333984 424.689575,623.884277 
  	C419.233246,630.444031 415.344666,638.317871 410.818756,645.639160 
  	C403.335419,657.744629 413.703156,673.101318 425.459778,676.227051 
  	C434.069611,678.516174 442.734497,679.142090 451.131134,676.867493 
  	C466.490479,672.706909 482.086700,668.802856 496.718536,662.712341 
  	C521.886902,652.236023 546.397705,640.178589 571.172791,628.759338 
  	C651.108154,591.915527 732.989258,560.463135 818.645264,539.484131 
  	C867.116272,527.612610 916.056152,518.228455 965.769592,513.558838 
  	C993.861145,510.920197 1022.034058,508.625519 1050.221191,507.656494 
  	C1087.450684,506.376617 1124.758423,505.457916 1161.979248,506.428680 
  	C1193.791748,507.258362 1225.556396,510.664215 1257.292480,513.488220 
  	C1297.082764,517.028931 1336.295288,524.281616 1375.079468,533.726562 
  	C1442.839722,550.227966 1507.156616,575.147705 1565.184326,614.420837 
  	C1609.144165,644.172791 1647.454224,679.901306 1676.055786,725.143555 
  	C1702.357056,766.746826 1719.141357,811.868835 1726.376465,860.637939 
  	C1729.859863,884.117859 1731.026367,907.701965 1729.515015,931.239441 
  	C1726.476685,978.556091 1714.219849,1023.494019 1692.138062,1065.666382 
  	C1665.522461,1116.496948 1626.009644,1155.280640 1579.431641,1187.628662 
  	C1515.173706,1232.255127 1443.822998,1260.601562 1368.461304,1279.770630 
  	C1322.984009,1291.338257 1276.913940,1299.472534 1230.214844,1304.281738 
  	C1199.125732,1307.483276 1168.033447,1310.003174 1136.761353,1310.166992 
  	C1127.475220,1310.215576 1118.181519,1311.564575 1108.910889,1311.372803 
  	C1052.749390,1310.211060 996.599121,1308.805908 941.521973,1295.802246 
  	C914.533447,1289.430176 888.259705,1281.167114 863.779358,1267.854004 
  	C828.958374,1248.917480 801.588562,1222.866821 788.861938,1184.517700 
  	C770.095459,1127.968994 782.375732,1077.583618 822.430176,1034.013550 
  	C854.606323,999.013367 895.731079,978.108643 939.699219,962.314514 
  	C982.438904,946.961670 1026.597534,937.853333 1071.799683,933.314575 
  	C1099.331543,930.550049 1126.882202,929.501953 1154.487793,930.194336 
  	C1183.726929,930.927734 1212.949463,933.202454 1242.178345,933.184387 
  	C1265.405029,933.170044 1288.620117,930.610413 1311.123413,924.004150 
  	C1320.107788,921.366638 1328.510376,917.893982 1335.824097,911.525269 
  	C1348.621338,900.381409 1345.486938,886.133179 1336.990723,876.182861 
  	C1328.517334,866.259094 1317.357910,860.478088 1305.353882,856.008057 
  	C1288.731934,849.818420 1271.442383,846.352905 1253.953857,844.221252 
  	C1206.254883,838.407288 1158.274902,837.910461 1110.430054,840.376892 
  	C1033.171387,844.359558 957.300293,857.136841 883.393188,880.709534 
  	C838.968628,894.878723 796.045349,912.840515 753.193665,931.011353 
  	C694.712463,955.809875 636.599670,981.501770 577.806702,1005.533142 
  	C527.568176,1026.067993 475.918457,1042.469971 422.395599,1052.551636 
  	C377.708191,1060.969116 332.676086,1064.361572 287.377106,1061.275269 
  	C244.258743,1058.337402 202.586243,1048.525269 163.581573,1029.305542 
  	C126.551010,1011.058594 95.652847,985.030640 69.996292,952.872253 
  	C34.246826,908.063110 13.909284,856.687317 6.260272,800.091919 
  	C5.904054,797.456299 5.855809,794.778931 5.711590,790.418091 
  	C4.699393,785.075623 8.530326,779.720337 2.000000,778.000000 
  	C2.000000,759.958191 2.000000,741.916443 2.633760,722.545410 
  	C3.979130,716.747681 4.690740,712.279053 5.519147,706.936157 
  	C9.393908,684.165710 11.848343,661.948608 17.148849,640.432556 
  	C34.584015,569.658997 65.061287,504.500244 105.398979,443.965332 
  	C144.352203,385.508026 190.876282,333.682709 244.260117,288.023712 
  	C319.395111,223.761047 402.995270,172.979462 492.709717,131.901657 
  	C544.486572,108.194420 597.673157,88.266899 652.101990,71.564751 
  	C698.217224,57.413738 744.869507,45.337173 792.203918,36.132580 
  	C825.770630,29.605223 859.478638,23.658386 893.297180,18.616215 
  	C922.494263,14.263064 951.892700,11.101675 981.283936,8.259601 
  	C1004.071472,6.056080 1026.985352,5.158596 1050.762085,3.800155 
  	C1059.097046,3.004927 1066.875000,6.297977 1074.000000,2.000000 
  	C1112.041748,2.000000 1150.083618,2.000000 1189.612305,2.627093 
  	C1198.785400,3.396273 1206.471313,3.538360 1215.049805,3.827838 
  	C1232.495728,5.122644 1249.087769,5.875937 1265.593994,7.501736 
  	C1297.307983,10.625446 1329.035278,13.754019 1360.643799,17.772125 
  	C1407.467529,23.724390 1453.765869,32.756985 1499.704712,43.582325 
  	C1576.891968,61.771286 1652.273682,85.578514 1725.490479,116.149612 
  	C1795.671387,145.453033 1862.900513,180.342453 1926.481323,222.132690 
  	C1996.255005,267.993134 2060.705322,320.217072 2117.478027,381.688995 
  	C2140.977295,407.133026 2163.070312,433.657043 2183.506592,461.628113 
  	C2233.389404,529.902100 2272.048340,603.816833 2296.449219,684.935730 
  	C2308.722168,725.736267 2317.949463,767.152527 2320.179199,810.709961 
  	C2320.716064,815.702637 2321.358154,819.851318 2322.000000,824.000000 
  	C2322.000000,846.041809 2322.000000,868.083557 2321.352051,891.540955 
  	C2320.573730,897.355896 2320.443359,901.755188 2320.192871,907.050781 
  	C2317.902344,926.728333 2316.853516,945.720642 2313.367432,964.254517 
  	C2298.321533,1044.258545 2268.761475,1118.666992 2225.321289,1187.549805 
  	C2201.995117,1224.538208 2175.328369,1258.895264 2145.556152,1290.941895 
  	C2121.704102,1316.616211 2096.048584,1340.281616 2068.641113,1362.029541 
  	C2052.189941,1375.083618 2033.606567,1377.967285 2014.166260,1369.619873 
  	C1991.151367,1359.737549 1982.566284,1340.771973 1982.672485,1320.705688 
  	C1982.764893,1303.301270 1991.091064,1289.128296 2005.184448,1278.175415 
  	C2031.514404,1257.713135 2055.356445,1234.575806 2077.596924,1209.697510 
  	C2115.124756,1167.718506 2146.143555,1121.513428 2169.884033,1070.432251 
  	C2197.777588,1010.415100 2214.496094,947.605774 2217.829834,881.335815 
  	C2219.778809,842.595642 2216.882324,804.240173 2209.208740,766.291809 
  	C2193.775391,689.969543 2163.051758,619.937927 2120.600830,554.955078 
  	C2087.538574,504.343964 2048.861572,458.410583 2004.788818,416.925598 
  	C1976.134888,389.954071 1946.083374,364.778564 1914.437866,341.432587 
  	C1826.428467,276.504913 1730.119019,227.305695 1627.435669,190.328003 
  	C1543.675049,160.164612 1457.633057,138.963852 1369.631470,125.432076 
  	C1323.640503,118.360184 1277.417969,113.646843 1231.060791,110.274864 
  	C1206.864990,108.514885 1182.557983,107.852409 1158.291504,107.586563 
  	C1112.705078,107.087135 1067.107544,107.328850 1021.650146,111.484825 
  	C986.940613,114.658165 952.195190,117.590950 917.581055,121.621155 
  	C863.384033,127.931435 809.891357,138.376343 756.928284,151.443161 
  	C691.902771,167.485992 628.351562,188.064972 566.631042,214.156601 
  	C497.716400,243.289429 432.384308,278.911407 371.178314,322.029633 
  	C334.098633,348.151428 298.993530,376.769989 266.915161,408.743439 
  	C248.602570,426.996155 231.608932,446.866608 216.054321,467.538361 
  	C163.075500,537.946106 125.640511,615.594299 111.165955,703.199158 
  	C105.202744,739.290466 105.254105,775.505737 114.466377,811.126648 
  	C127.215919,860.425171 153.764893,900.385437 197.283371,927.868835 
  	C227.870056,947.185364 262.198395,954.816956 297.758972,957.374512 
  	C334.499603,960.016907 370.797485,955.813660 406.822632,948.793762 
  	C454.027679,939.595337 499.549683,924.691711 543.839600,906.329773 
  	C607.445435,879.959778 670.594238,852.487183 733.925720,825.456116 
  	C789.339844,801.804077 845.525208,780.390625 904.128540,765.812866 
  	C971.415710,749.074951 1039.608887,738.417969 1108.938110,736.189575 
  	C1154.166016,734.735840 1199.424561,733.961487 1244.551636,739.374756 
  	C1283.073730,743.995667 1320.622681,752.183228 1356.106445,768.223328 
  	C1381.427246,779.669250 1405.155151,793.474060 1423.808594,814.860168 
  	C1458.495728,854.628723 1460.567627,908.491089 1436.783569,950.687622 
  	C1415.959106,987.633240 1384.374756,1011.219238 1344.190796,1023.580811 
  	C1312.801270,1033.237183 1280.331665,1036.324097 1247.744751,1037.267822 
  	C1225.821289,1037.902588 1203.840210,1036.170654 1181.885986,1036.207520 
  	C1151.596802,1036.258423 1121.305420,1036.815918 1091.021240,1037.457397 
  	C1060.231934,1038.109375 1030.360229,1044.754883 1000.652222,1052.163330 
  	C973.412354,1058.956299 947.050659,1068.114868 922.784607,1082.526123 
  	C912.420532,1088.681274 902.989197,1096.054932 895.594482,1105.724243 
  	C881.964539,1123.546631 881.941345,1147.698364 895.130981,1162.986938 
  	C899.630371,1168.202393 905.168579,1172.739624 910.872681,1176.653076 
  	C923.684082,1185.443115 938.384827,1190.064087 953.304443,1193.648682 
  	C989.967041,1202.456909 1027.393555,1205.972046 1064.921753,1207.200439 
  	C1091.809448,1208.080688 1118.803833,1207.163696 1145.698975,1205.925781 
  	C1171.221313,1204.750732 1196.701416,1202.386841 1222.155640,1200.060303 
  	C1262.265259,1196.394043 1301.889648,1189.693726 1340.973877,1179.892822 
  	C1406.417603,1163.481934 1468.198853,1138.776978 1523.245483,1098.994385 
  	C1546.236572,1082.378540 1567.777588,1064.119141 1584.395752,1040.801270 
  	C1619.515747,991.522888 1631.668701,936.400696 1623.426270,877.075867 
  	C1614.757690,814.683838 1584.325317,764.054993 1536.066040,723.841003 
  	C1489.963623,685.424316 1436.723022,661.063232 1379.748657,644.034302 
  	C1340.808350,632.395508 1301.033081,624.818420 1260.771484,619.354675 
  	C1218.553589,613.625488 1176.103638,611.488098 1133.609131,610.285034 
  	C1112.683838,609.692627 1091.700684,610.891174 1070.750488,611.507141 
  	C1055.135376,611.966309 1039.530518,612.776428 1023.922119,613.456299 
  	C993.015869,614.802612 962.408264,618.846191 931.871399,623.582153 
  	C875.546509,632.317566 820.445007,646.035156 766.287842,663.732361 
  	C713.074219,681.121216 661.515625,702.617615 610.738647,726.055176 
  	C575.091614,742.509094 539.598145,759.267334 501.824951,770.545471 
  	C464.906799,781.568237 427.598969,789.044678 388.822906,784.016968 
  	C370.429626,781.631958 352.914886,776.154053 337.963470,764.942566 
  	C299.157715,735.843567 286.400574,696.091553 293.172852,649.431641 
  	C297.279388,621.137878 310.708527,596.570007 327.506287,573.824585 
  	C349.432434,544.134949 376.427307,519.477417 405.202332,496.689484 
  	C452.913361,458.905426 504.930054,428.118073 559.590088,401.526367 
  	C617.197998,373.500549 676.830688,350.714569 738.171631,332.558380 
  	C821.535889,307.883636 906.477783,290.764923 992.969666,281.302795 
  	C1033.649170,276.852448 1074.409424,274.180969 1115.288208,273.553680 
  	C1156.213867,272.925598 1197.138916,273.576141 1237.932617,277.459839 
  	C1267.685913,280.292450 1297.553345,282.381500 1327.130615,286.514008 
  	C1384.465820,294.524872 1441.161621,305.988953 1496.957886,321.643585 
  	C1593.329468,348.682434 1685.076294,386.416199 1769.747314,440.268707 
  	C1835.874878,482.327209 1895.278809,532.274780 1945.703979,592.536194 
  	C1977.947632,631.069458 2004.769165,672.971619 2023.948730,719.528503 
  	C2047.374512,776.393066 2057.753174,835.306152 2052.428223,896.916138 
  	C2048.566895,941.595947 2035.948364,983.619812 2016.690308,1023.831787 
  	C1996.590210,1065.802124 1970.283325,1103.812378 1941.137207,1139.874634 
  	C1903.687500,1186.211060 1881.671875,1237.646362 1885.551880,1298.509155 
  	C1886.744263,1317.212402 1889.950928,1335.408325 1894.712402,1353.414429 
  	C1904.660034,1391.032593 1921.480591,1425.839600 1940.156616,1459.630249 
  	C1962.687256,1500.395020 1986.933594,1540.207642 2009.961304,1580.703003 
  	C2029.042847,1614.259155 2048.085693,1647.880127 2062.791992,1683.691040 
  	C2074.137939,1711.319580 2081.633789,1739.750244 2080.303955,1769.983765 
  	C2079.189453,1795.320435 2071.945801,1818.406982 2055.185303,1837.862671 
  	C2037.566162,1858.314575 2014.688843,1869.822876 1988.817627,1876.109131 
  	C1985.115234,1877.008789 1981.601196,1878.683716 1978.000000,1880.000000 
  	C1961.291504,1880.000000 1944.583008,1880.000000 1926.937256,1880.000000 
  z"
    />
    <path
      fill="transparent"
      opacity="1.000000"
      stroke="none"
      d="
  M1978.937256,1880.000000 
  	C1981.601196,1878.683716 1985.115234,1877.008789 1988.817627,1876.109131 
  	C2014.688843,1869.822876 2037.566162,1858.314575 2055.185303,1837.862671 
  	C2071.945801,1818.406982 2079.189453,1795.320435 2080.303955,1769.983765 
  	C2081.633789,1739.750244 2074.137939,1711.319580 2062.791992,1683.691040 
  	C2048.085693,1647.880127 2029.042847,1614.259155 2009.961304,1580.703003 
  	C1986.933594,1540.207642 1962.687256,1500.395020 1940.156616,1459.630249 
  	C1921.480591,1425.839600 1904.660034,1391.032593 1894.712402,1353.414429 
  	C1889.950928,1335.408325 1886.744263,1317.212402 1885.551880,1298.509155 
  	C1881.671875,1237.646362 1903.687500,1186.211060 1941.137207,1139.874634 
  	C1970.283325,1103.812378 1996.590210,1065.802124 2016.690308,1023.831787 
  	C2035.948364,983.619812 2048.566895,941.595947 2052.428223,896.916138 
  	C2057.753174,835.306152 2047.374512,776.393066 2023.948730,719.528503 
  	C2004.769165,672.971619 1977.947632,631.069458 1945.703979,592.536194 
  	C1895.278809,532.274780 1835.874878,482.327209 1769.747314,440.268707 
  	C1685.076294,386.416199 1593.329468,348.682434 1496.957886,321.643585 
  	C1441.161621,305.988953 1384.465820,294.524872 1327.130615,286.514008 
  	C1297.553345,282.381500 1267.685913,280.292450 1237.932617,277.459839 
  	C1197.138916,273.576141 1156.213867,272.925598 1115.288208,273.553680 
  	C1074.409424,274.180969 1033.649170,276.852448 992.969666,281.302795 
  	C906.477783,290.764923 821.535889,307.883636 738.171631,332.558380 
  	C676.830688,350.714569 617.197998,373.500549 559.590088,401.526367 
  	C504.930054,428.118073 452.913361,458.905426 405.202332,496.689484 
  	C376.427307,519.477417 349.432434,544.134949 327.506287,573.824585 
  	C310.708527,596.570007 297.279388,621.137878 293.172852,649.431641 
  	C286.400574,696.091553 299.157715,735.843567 337.963470,764.942566 
  	C352.914886,776.154053 370.429626,781.631958 388.822906,784.016968 
  	C427.598969,789.044678 464.906799,781.568237 501.824951,770.545471 
  	C539.598145,759.267334 575.091614,742.509094 610.738647,726.055176 
  	C661.515625,702.617615 713.074219,681.121216 766.287842,663.732361 
  	C820.445007,646.035156 875.546509,632.317566 931.871399,623.582153 
  	C962.408264,618.846191 993.015869,614.802612 1023.922119,613.456299 
  	C1039.530518,612.776428 1055.135376,611.966309 1070.750488,611.507141 
  	C1091.700684,610.891174 1112.683838,609.692627 1133.609131,610.285034 
  	C1176.103638,611.488098 1218.553589,613.625488 1260.771484,619.354675 
  	C1301.033081,624.818420 1340.808350,632.395508 1379.748657,644.034302 
  	C1436.723022,661.063232 1489.963623,685.424316 1536.066040,723.841003 
  	C1584.325317,764.054993 1614.757690,814.683838 1623.426270,877.075867 
  	C1631.668701,936.400696 1619.515747,991.522888 1584.395752,1040.801270 
  	C1567.777588,1064.119141 1546.236572,1082.378540 1523.245483,1098.994385 
  	C1468.198853,1138.776978 1406.417603,1163.481934 1340.973877,1179.892822 
  	C1301.889648,1189.693726 1262.265259,1196.394043 1222.155640,1200.060303 
  	C1196.701416,1202.386841 1171.221313,1204.750732 1145.698975,1205.925781 
  	C1118.803833,1207.163696 1091.809448,1208.080688 1064.921753,1207.200439 
  	C1027.393555,1205.972046 989.967041,1202.456909 953.304443,1193.648682 
  	C938.384827,1190.064087 923.684082,1185.443115 910.872681,1176.653076 
  	C905.168579,1172.739624 899.630371,1168.202393 895.130981,1162.986938 
  	C881.941345,1147.698364 881.964539,1123.546631 895.594482,1105.724243 
  	C902.989197,1096.054932 912.420532,1088.681274 922.784607,1082.526123 
  	C947.050659,1068.114868 973.412354,1058.956299 1000.652222,1052.163330 
  	C1030.360229,1044.754883 1060.231934,1038.109375 1091.021240,1037.457397 
  	C1121.305420,1036.815918 1151.596802,1036.258423 1181.885986,1036.207520 
  	C1203.840210,1036.170654 1225.821289,1037.902588 1247.744751,1037.267822 
  	C1280.331665,1036.324097 1312.801270,1033.237183 1344.190796,1023.580811 
  	C1384.374756,1011.219238 1415.959106,987.633240 1436.783569,950.687622 
  	C1460.567627,908.491089 1458.495728,854.628723 1423.808594,814.860168 
  	C1405.155151,793.474060 1381.427246,779.669250 1356.106445,768.223328 
  	C1320.622681,752.183228 1283.073730,743.995667 1244.551636,739.374756 
  	C1199.424561,733.961487 1154.166016,734.735840 1108.938110,736.189575 
  	C1039.608887,738.417969 971.415710,749.074951 904.128540,765.812866 
  	C845.525208,780.390625 789.339844,801.804077 733.925720,825.456116 
  	C670.594238,852.487183 607.445435,879.959778 543.839600,906.329773 
  	C499.549683,924.691711 454.027679,939.595337 406.822632,948.793762 
  	C370.797485,955.813660 334.499603,960.016907 297.758972,957.374512 
  	C262.198395,954.816956 227.870056,947.185364 197.283371,927.868835 
  	C153.764893,900.385437 127.215919,860.425171 114.466377,811.126648 
  	C105.254105,775.505737 105.202744,739.290466 111.165955,703.199158 
  	C125.640511,615.594299 163.075500,537.946106 216.054321,467.538361 
  	C231.608932,446.866608 248.602570,426.996155 266.915161,408.743439 
  	C298.993530,376.769989 334.098633,348.151428 371.178314,322.029633 
  	C432.384308,278.911407 497.716400,243.289429 566.631042,214.156601 
  	C628.351562,188.064972 691.902771,167.485992 756.928284,151.443161 
  	C809.891357,138.376343 863.384033,127.931435 917.581055,121.621155 
  	C952.195190,117.590950 986.940613,114.658165 1021.650146,111.484825 
  	C1067.107544,107.328850 1112.705078,107.087135 1158.291504,107.586563 
  	C1182.557983,107.852409 1206.864990,108.514885 1231.060791,110.274864 
  	C1277.417969,113.646843 1323.640503,118.360184 1369.631470,125.432076 
  	C1457.633057,138.963852 1543.675049,160.164612 1627.435669,190.328003 
  	C1730.119019,227.305695 1826.428467,276.504913 1914.437866,341.432587 
  	C1946.083374,364.778564 1976.134888,389.954071 2004.788818,416.925598 
  	C2048.861572,458.410583 2087.538574,504.343964 2120.600830,554.955078 
  	C2163.051758,619.937927 2193.775391,689.969543 2209.208740,766.291809 
  	C2216.882324,804.240173 2219.778809,842.595642 2217.829834,881.335815 
  	C2214.496094,947.605774 2197.777588,1010.415100 2169.884033,1070.432251 
  	C2146.143555,1121.513428 2115.124756,1167.718506 2077.596924,1209.697510 
  	C2055.356445,1234.575806 2031.514404,1257.713135 2005.184448,1278.175415 
  	C1991.091064,1289.128296 1982.764893,1303.301270 1982.672485,1320.705688 
  	C1982.566284,1340.771973 1991.151367,1359.737549 2014.166260,1369.619873 
  	C2033.606567,1377.967285 2052.189941,1375.083618 2068.641113,1362.029541 
  	C2096.048584,1340.281616 2121.704102,1316.616211 2145.556152,1290.941895 
  	C2175.328369,1258.895264 2201.995117,1224.538208 2225.321289,1187.549805 
  	C2268.761475,1118.666992 2298.321533,1044.258545 2313.367432,964.254517 
  	C2316.853516,945.720642 2317.902344,926.728333 2320.617920,907.050354 
  	C2321.163330,906.153748 2322.000000,906.000000 2322.000000,906.000000 
  	C2322.000000,1230.451050 2322.000000,1554.902100 2322.000000,1880.000000 
  	C2207.958984,1880.000000 2093.916748,1880.000000 1978.937256,1880.000000 
  z"
    />
    <path
      fill="transparent"
      opacity="1.000000"
      stroke="none"
      d="
  M2320.283936,809.866028 
  	C2317.949463,767.152527 2308.722168,725.736267 2296.449219,684.935730 
  	C2272.048340,603.816833 2233.389404,529.902100 2183.506592,461.628113 
  	C2163.070312,433.657043 2140.977295,407.133026 2117.478027,381.688995 
  	C2060.705322,320.217072 1996.255005,267.993134 1926.481323,222.132690 
  	C1862.900513,180.342453 1795.671387,145.453033 1725.490479,116.149612 
  	C1652.273682,85.578514 1576.891968,61.771286 1499.704712,43.582325 
  	C1453.765869,32.756985 1407.467529,23.724390 1360.643799,17.772125 
  	C1329.035278,13.754019 1297.307983,10.625446 1265.593994,7.501736 
  	C1249.087769,5.875937 1232.495728,5.122644 1215.010620,3.407825 
  	C1214.078857,2.840423 1214.000000,2.000000 1214.000000,2.000000 
  	C1583.164673,2.000000 1952.329224,2.000000 2322.000000,2.000000 
  	C2322.000000,270.708252 2322.000000,539.416809 2321.573242,809.002136 
  	C2321.146240,809.878906 2320.283936,809.866028 2320.283936,809.866028 
  z"
    />
    <path
      fill="transparent"
      opacity="1.000000"
      stroke="none"
      d="
  M1049.843140,3.680561 
  	C1026.985352,5.158596 1004.071472,6.056080 981.283936,8.259601 
  	C951.892700,11.101675 922.494263,14.263064 893.297180,18.616215 
  	C859.478638,23.658386 825.770630,29.605223 792.203918,36.132580 
  	C744.869507,45.337173 698.217224,57.413738 652.101990,71.564751 
  	C597.673157,88.266899 544.486572,108.194420 492.709717,131.901657 
  	C402.995270,172.979462 319.395111,223.761047 244.260117,288.023712 
  	C190.876282,333.682709 144.352203,385.508026 105.398979,443.965332 
  	C65.061287,504.500244 34.584015,569.658997 17.148849,640.432556 
  	C11.848343,661.948608 9.393908,684.165710 5.078232,707.187134 
  	C3.680343,708.875000 2.840167,709.437500 1.999995,710.000000 
  	C2.000000,474.117584 2.000000,238.235199 2.000000,2.000000 
  	C350.708374,2.000000 699.416870,2.000000 1049.022949,2.420095 
  	C1049.920654,2.840190 1049.843140,3.680562 1049.843140,3.680561 
  z"
    />
    <path
      fill="#CDC9E2"
      opacity="1.000000"
      stroke="none"
      d="
  M1050.762085,3.800155 
  	C1049.843140,3.680562 1049.920654,2.840190 1049.960327,2.420095 
  	C1057.385864,2.000000 1064.771606,2.000000 1073.078735,2.000000 
  	C1066.875000,6.297977 1059.097046,3.004927 1050.762085,3.800155 
  z"
    />
    <path
      fill="#CDC9E2"
      opacity="1.000000"
      stroke="none"
      d="
  M1213.078735,2.000000 
  	C1214.000000,2.000000 1214.078857,2.840423 1214.118164,3.260436 
  	C1206.471313,3.538360 1198.785400,3.396273 1190.549683,2.627093 
  	C1197.385864,2.000000 1204.771606,2.000000 1213.078735,2.000000 
  z"
    />
    <path
      fill="#CCC2DF"
      opacity="1.000000"
      stroke="none"
      d="
  M1.999995,710.856934 
  	C2.840167,709.437500 3.680343,708.875000 4.961434,708.061523 
  	C4.690740,712.279053 3.979130,716.747681 2.633760,721.608154 
  	C2.000000,718.571289 2.000000,715.142578 1.999995,710.856934 
  z"
    />
    <path
      fill="#B2AFD5"
      opacity="1.000000"
      stroke="none"
      d="
  M2.000000,778.856934 
  	C8.530326,779.720337 4.699393,785.075623 5.640722,789.552124 
  	C4.744620,790.218079 3.966837,790.047058 2.594527,789.937988 
  	C2.000000,786.571289 2.000000,783.142578 2.000000,778.856934 
  z"
    />
    <path
      fill="#D1CBE4"
      opacity="1.000000"
      stroke="none"
      d="
  M2320.179199,810.709961 
  	C2320.283936,809.866028 2321.146240,809.878906 2321.573242,809.939453 
  	C2322.000000,814.083313 2322.000000,818.166687 2322.000000,823.125000 
  	C2321.358154,819.851318 2320.716064,815.702637 2320.179199,810.709961 
  z"
    />
    <path
      fill="#CDCBE4"
      opacity="1.000000"
      stroke="none"
      d="
  M2322.000000,905.125000 
  	C2322.000000,906.000000 2321.163330,906.153748 2320.738281,906.154175 
  	C2320.443359,901.755188 2320.573730,897.355896 2321.352051,892.478271 
  	C2322.000000,896.083313 2322.000000,900.166687 2322.000000,905.125000 
  z"
    />
  </svg>